<?xml version="1.0" encoding="UTF-8"?>
<svg width="483px" height="91px" viewBox="0 0 483 91" version="1.1" xmlns="http://www.w3.org/2000/svg" xmlns:xlink="http://www.w3.org/1999/xlink">
    <title>Fakecrud</title>
    <g id="Page-1" stroke="none" stroke-width="1" fill="none" fill-rule="evenodd">
        <path d="M15.166,90.77 C24.2126667,90.77 28.736,88.4493333 28.736,83.808 C28.736,75.076 30.7813333,63.1973333 34.872,48.172 C35.5013333,48.0933333 36.052,48.054 36.524,48.054 L36.524,48.054 L38.058,48.054 L55.994,48.88 C58.0393333,48.88 59.3766667,47.582 60.006,44.986 C60.3206667,43.7273333 60.6746667,42.508 61.068,41.328 C61.4613333,40.148 61.658,39.322 61.658,38.85 C61.658,37.3553333 61.0286667,36.608 59.77,36.608 L59.77,36.608 L38.176,36.254 C41.3226667,26.106 43.2106667,18.79 43.84,14.306 L43.84,14.306 L52.926,14.306 L68.62,14.424 L72.396,14.424 C75.7786667,14.424 77.9813333,13.008 79.004,10.176 C79.476,8.76 80.0266667,7.44233333 80.656,6.223 C81.2853333,5.00366667 81.6,4.158 81.6,3.686 C81.6,2.034 80.538,1.208 78.414,1.208 L78.414,1.208 L43.014,0.618 C31.1353333,0.539333333 21.1446667,2.388 13.042,6.164 C4.93933333,9.94 0.848666667,14.8566667 0.77,20.914 C0.77,22.4873333 1.04533333,23.746 1.596,24.69 C2.14666667,25.634 2.717,26.106 3.307,26.106 C3.897,26.106 4.58533333,25.752 5.372,25.044 C6.15866667,24.336 7.18133333,23.3526667 8.44,22.094 C13.4746667,17.2953333 19.9253333,14.6993333 27.792,14.306 C24.5666667,21.7793333 21.6953333,30 19.178,38.968 C13.5926667,40.4626667 9.561,42.213 7.083,44.219 C4.605,46.225 3.366,48.1326667 3.366,49.942 C3.366,50.7286667 3.87733333,51.122 4.9,51.122 C7.88933333,51.122 11.6653333,50.8073333 16.228,50.178 C12.8453333,62.8433333 11.154,72.716 11.154,79.796 C11.154,83.1 11.331,85.755 11.685,87.761 C12.039,89.767 13.1993333,90.77 15.166,90.77 Z M87.559,89.944 C93.105,89.944 97.53,88.8623333 100.834,86.699 C104.138,84.5356667 106.812667,81.7626667 108.858,78.38 C110.274,85.696 113.066667,89.354 117.236,89.354 C120.304,89.354 123.450667,88.6066667 126.676,87.112 C129.901333,85.6173333 132.831667,83.7096667 135.467,81.389 C138.102333,79.0683333 140.246,76.5116667 141.898,73.719 C143.55,70.9263333 144.376,68.5466667 144.376,66.58 C144.376,62.9613333 143.668,61.152 142.252,61.152 C141.622667,61.152 140.6,61.9386667 139.184,63.512 C131.317333,71.6933333 126.361333,75.784 124.316,75.784 C122.664,75.784 121.838,72.5193333 121.838,65.99 C121.838,59.4606667 122.152667,54.3866667 122.782,50.768 C124.906,47.1493333 126.518667,44.042 127.62,41.446 C127.62,39.322 126.381,37.0603333 123.903,34.661 C121.425,32.2616667 118.809333,31.062 116.056,31.062 C114.64,31.062 113.381333,32.2026667 112.28,34.484 C109.998667,33.2253333 107.048667,32.596 103.43,32.596 C99.8113333,32.596 96.3696667,33.1073333 93.105,34.13 C89.8403333,35.1526667 86.32,37.2766667 82.544,40.502 C73.6546667,48.2113333 69.21,58.7526667 69.21,72.126 C69.1313333,77.082 70.7833333,81.2906667 74.166,84.752 C77.5486667,88.2133333 82.013,89.944 87.559,89.944 Z M93.282,77.318 C88.798,77.318 86.556,74.2893333 86.556,68.232 C86.556,60.8373333 88.916,54.7013333 93.636,49.824 C98.356,44.9466667 103.902,41.8786667 110.274,40.62 C108.700667,46.9133333 107.914,54.4653333 107.914,63.276 C107.206,65.7933333 106.301333,67.9173333 105.2,69.648 C102.053333,74.6826667 98.0806667,77.2393333 93.282,77.318 Z M145.792,90.77 C148.938667,90.77 152.046,89.5506667 155.114,87.112 C156.294,86.168 156.962667,84.9683333 157.12,83.513 C157.277333,82.0576667 157.356,80.5826667 157.356,79.088 L157.356,79.088 L158.182,62.922 C159.440667,66.1473333 160.778,69.3333333 162.194,72.48 C167.228667,83.7293333 172.951667,89.3736667 179.363,89.413 C185.774333,89.4523333 191.576,86.876 196.768,81.684 C201.96,76.492 204.556,71.1033333 204.556,65.518 C204.556,62.8433333 204.044667,61.506 203.022,61.506 C201.999333,61.506 200.898,62.2533333 199.718,63.748 C198.538,65.2426667 197.161333,66.875 195.588,68.645 C194.014667,70.415 192.244667,72.0473333 190.278,73.542 C188.311333,75.0366667 186.108667,75.784 183.67,75.784 C178.635333,75.784 175.056,71.5753333 172.932,63.158 C177.652,63.2366667 182.332667,61.6633333 186.974,58.438 C191.615333,55.2126667 193.936,51.2793333 193.936,46.638 C193.936,41.9966667 192.598667,38.4763333 189.924,36.077 C187.249333,33.6776667 183.394667,32.478 178.36,32.478 C175.842667,32.478 173.64,32.832 171.752,33.54 C166.402667,35.5066667 162.351333,39.3613333 159.598,45.104 L159.598,45.104 L160.778,35.192 C162.115333,33.068 163.452667,31.0816667 164.79,29.233 C166.127333,27.3843333 167.346667,25.575 168.448,23.805 C169.549333,22.035 170.434333,20.2256667 171.103,18.377 C171.771667,16.5283333 172.086333,14.6403333 172.047,12.713 C172.007667,10.7856667 171.358667,8.819 170.1,6.813 C168.841333,4.807 167.661333,3.31233333 166.56,2.329 C165.458667,1.34566667 164.416333,0.854 163.433,0.854 C162.449667,0.854 161.564667,1.09 160.778,1.562 C159.991333,2.034 158.909667,3.29266667 157.533,5.338 C156.156333,7.38333333 154.229,11.4543333 151.751,17.551 C149.273,23.6476667 146.736,32.714 144.14,44.75 C141.544,56.786 140.246,68.3106667 140.246,79.324 C140.246,86.9546667 142.094667,90.77 145.792,90.77 Z M159.244,59.972 C160.030667,58.084 160.974667,56.2353333 162.076,54.426 C165.852,48.2113333 169.352667,45.104 172.578,45.104 C175.803333,45.104 177.416,46.52 177.416,49.352 C177.416,50.768 176.944,52.1053333 176,53.364 C173.010667,57.2973333 167.425333,59.5 159.244,59.972 Z M218.362,89.708 C230.162,89.708 239.444667,86.522 246.21,80.15 C248.963333,77.554 250.93,74.899 252.11,72.185 C253.29,69.471 253.88,67.0126667 253.88,64.81 C253.88,62.6073333 253.329333,61.506 252.228,61.506 C251.52,61.506 250.497333,62.273 249.16,63.807 C247.822667,65.341 246.092,67.0126667 243.968,68.822 C238.225333,73.6993333 232.286,76.138 226.15,76.138 C223.239333,76.0593333 220.643333,75.43 218.362,74.25 C216.080667,73.07 214.900667,71.064 214.822,68.232 L214.822,68.232 L214.822,65.282 C217.968667,63.866 221.174333,62.5876667 224.439,61.447 C227.703667,60.3063333 230.673333,59.0083333 233.348,57.553 C236.022667,56.0976667 238.205667,54.2883333 239.897,52.125 C241.588333,49.9616667 242.434,47.1886667 242.434,43.806 C242.434,40.4233333 241.273667,37.67 238.953,35.546 C236.632333,33.422 233.328333,32.36 229.041,32.36 C224.753667,32.36 220.722,33.3236667 216.946,35.251 C213.17,37.1783333 209.846333,39.8726667 206.975,43.334 C204.103667,46.7953333 201.802667,50.9056667 200.072,55.665 C198.341333,60.4243333 197.476,65.0066667 197.476,69.412 C197.476,73.8173333 198.066,77.2 199.246,79.56 C202.628667,86.3253333 209.000667,89.708 218.362,89.708 Z M215.648,57.14 C217.221333,47.6213333 220.053333,42.862 224.144,42.862 C226.582667,42.862 227.802,43.8453333 227.802,45.812 C227.723333,48.0146667 226.504,49.9813333 224.144,51.712 C223.042667,52.4986667 221.764333,53.3246667 220.309,54.19 C218.853667,55.0553333 217.3,56.0386667 215.648,57.14 Z M266.447,89.708 C271.678333,89.708 276.221333,88.8033333 280.076,86.994 C283.930667,85.1846667 287.097,83.0016667 289.575,80.445 C292.053,77.8883333 293.901667,75.2333333 295.121,72.48 C296.340333,69.7266667 296.95,67.1503333 296.95,64.751 C296.95,62.3516667 296.242,61.152 294.826,61.152 C294.118,61.152 293.075667,61.9386667 291.699,63.512 C290.322333,65.0853333 288.729333,66.7963333 286.92,68.645 C285.110667,70.4936667 283.124333,72.2046667 280.961,73.778 C278.797667,75.3513333 276.536,76.1183333 274.176,76.079 C271.816,76.0396667 269.770667,75.548 268.04,74.604 C265.522667,73.188 264.224667,71.064 264.146,68.232 C264.146,62.332 265.011333,57.1793333 266.742,52.774 C267.607333,50.5713333 268.689,48.762 269.987,47.346 C271.285,45.93 272.642,45.2416667 274.058,45.281 C275.474,45.3203333 276.772,45.8906667 277.952,46.992 C279.132,48.0933333 280.508667,48.644 282.082,48.644 C283.262,48.644 284.422333,47.818 285.563,46.166 C286.703667,44.514 287.274,42.3113333 287.274,39.558 C287.274,34.7593333 284.245333,32.36 278.188,32.36 C274.726667,32.36 271.068667,33.3236667 267.214,35.251 C263.359333,37.1783333 259.917667,39.8726667 256.889,43.334 C253.860333,46.7953333 251.421667,50.9056667 249.573,55.665 C247.724333,60.4243333 246.8,65.7343333 246.8,71.595 C246.8,77.4556667 248.766667,81.9396667 252.7,85.047 C256.633333,88.1543333 261.215667,89.708 266.447,89.708 Z M298.012,90.888 C301.394667,90.888 304.069333,90.1406667 306.036,88.646 C308.002667,87.1513333 308.986,85.46 308.986,83.572 L308.986,83.572 L308.278,69.176 C308.278,66.58 308.632,63.7676667 309.34,60.739 C310.048,57.7103333 310.756,54.7013333 311.464,51.712 C312.408,51.8693333 313.961667,51.948 316.125,51.948 C318.288333,51.948 320.235333,51.594 321.966,50.886 C318.268667,58.2806667 316.42,66.108 316.42,74.368 C316.498667,78.5373333 317.442667,82.0773333 319.252,84.988 C321.061333,87.8986667 323.775333,89.354 327.394,89.354 C333.53,89.4326667 338.977667,86.8366667 343.737,81.566 C348.496333,76.2953333 350.876,70.946 350.876,65.518 C350.876,62.8433333 350.325333,61.506 349.224,61.506 C348.673333,61.506 347.670333,62.2533333 346.215,63.748 C344.759667,65.2426667 343.166667,66.875 341.436,68.645 C339.705333,70.415 337.974667,72.0473333 336.244,73.542 C334.513333,75.0366667 333.058,75.784 331.878,75.784 C331.012667,75.784 330.599667,75.0956667 330.639,73.719 C330.678333,72.3423333 331.248667,69.648 332.35,65.636 C333.451333,61.624 334.415,58.202 335.241,55.37 C336.067,52.538 336.834,49.588 337.542,46.52 C335.260667,39.8333333 332.979333,36.49 330.698,36.49 C329.99,36.49 329.164,36.726 328.22,37.198 L328.22,37.198 L325.152,38.732 C322.162667,40.2266667 319.527333,40.974 317.246,40.974 C315.594,40.974 314.217333,40.7773333 313.116,40.384 C312.408,37.552 311.267333,35.074 309.694,32.95 C307.491333,29.882 304.934667,28.348 302.024,28.348 C296.36,28.348 293.528,30.9833333 293.528,36.254 C293.528,38.7713333 295.337333,41.7606667 298.956,45.222 C296.517333,50.0206667 294.885,54.7603333 294.059,59.441 C293.233,64.1216667 292.82,70.592 292.82,78.852 C292.82,82.7853333 293.193667,85.7746667 293.941,87.82 C294.688333,89.8653333 296.045333,90.888 298.012,90.888 Z M363.148,89.59 C366.688,89.59 369.834667,88.5476667 372.588,86.463 C375.341333,84.3783333 377.504667,81.8806667 379.078,78.97 C379.392667,81.9593333 380.159667,84.4373333 381.379,86.404 C382.598333,88.3706667 384.702667,89.354 387.692,89.354 C387.849333,89.4326667 388.046,89.472 388.282,89.472 C390.720667,89.472 396.502667,86.7973333 405.628,81.448 C411.056,76.3346667 413.77,71.0246667 413.77,65.518 C413.77,62.8433333 413.219333,61.506 412.118,61.506 C411.567333,61.506 410.564333,62.2533333 409.109,63.748 C407.653667,65.2426667 406.060667,66.875 404.33,68.645 C402.599333,70.415 400.868667,72.0473333 399.138,73.542 C397.407333,75.0366667 395.952,75.784 394.772,75.784 C393.906667,75.784 393.474,75.1153333 393.474,73.778 C393.395333,70.946 394.221333,65.4786667 395.952,57.376 C397.682667,49.2733333 398.548,43.2946667 398.548,39.44 C398.548,36.6866667 398.292333,34.6413333 397.781,33.304 C397.269667,31.9666667 395.991333,31.298 393.946,31.298 C385.764667,31.298 381.674,33.9333333 381.674,39.204 L381.674,39.204 L381.674,41.328 C381.674,42.272 381.693667,43.216 381.733,44.16 C381.772333,45.104 381.811667,46.0676667 381.851,47.051 C381.890333,48.0343333 381.949333,48.8406667 382.028,49.47 C381.241333,55.842 379.746667,61.624 377.544,66.816 C374.712,73.5813333 371.368667,76.964 367.514,76.964 C363.974,76.964 362.204,75.548 362.204,72.716 C362.204,69.176 362.833333,65.105 364.092,60.503 C365.350667,55.901 366.353667,52.0856667 367.101,49.057 C367.848333,46.0283333 368.025333,42.5866667 367.632,38.732 C367.16,34.012 365.114667,31.652 361.496,31.652 C356.933333,31.652 353.432667,32.596 350.994,34.484 L350.994,34.484 L347.572,63.512 C346.234667,66.0293333 345.271,68.1533333 344.681,69.884 C344.091,71.6146667 343.796,73.5026667 343.796,75.548 C343.796,80.1893333 345.467667,83.69 348.811,86.05 C352.154333,88.41 356.933333,89.59 363.148,89.59 Z M425.806,89.944 C435.088667,89.944 442.09,86.2073333 446.81,78.734 C448.147333,85.814 450.979333,89.354 455.306,89.354 C458.374,89.354 461.520667,88.6066667 464.746,87.112 C467.971333,85.6173333 470.901667,83.7096667 473.537,81.389 C476.172333,79.0683333 478.316,76.5116667 479.968,73.719 C481.62,70.9263333 482.446,68.5466667 482.446,66.58 C482.446,62.9613333 481.738,61.152 480.322,61.152 C479.692667,61.152 478.67,61.9386667 477.254,63.512 C469.387333,71.6933333 464.431333,75.784 462.386,75.784 C460.576667,75.784 459.672,73.07 459.672,67.642 C459.672,65.8326667 459.829333,63.4333333 460.144,60.444 C461.245333,49.9026667 462.936667,40.384 465.218,31.888 C466.240667,30.3933333 467.263333,28.9183333 468.286,27.463 C469.308667,26.0076667 470.233,24.513 471.059,22.979 C471.885,21.445 472.573333,19.7733333 473.124,17.964 C473.674667,16.1546667 473.95,14.306 473.95,12.418 C473.95,10.53 473.084667,8.288 471.354,5.692 C469.387333,2.54533333 467.263333,0.972 464.982,0.972 C463.566,0.972 462.15,1.83733333 460.734,3.568 C456.486,8.68133333 452.749333,18.8293333 449.524,34.012 L449.524,34.012 L446.81,33.304 C445.079333,32.832 442.719333,32.596 439.73,32.596 C433.122,32.596 426.75,35.2313333 420.614,40.502 C411.724667,48.2113333 407.28,58.7526667 407.28,72.126 C407.201333,77.082 408.853333,81.2906667 412.236,84.752 C415.618667,88.2133333 420.142,89.944 425.806,89.944 Z M431.352,77.318 C426.868,77.318 424.626,74.2893333 424.626,68.232 C424.626,60.8373333 426.986,54.7013333 431.706,49.824 C436.426,44.9466667 441.932667,41.8786667 448.226,40.62 C446.731333,49.116 445.905333,56.904 445.748,63.984 C444.253333,68.7826667 442.149,72.2046667 439.435,74.25 C436.721,76.2953333 434.026667,77.318 431.352,77.318 Z" id="Fakecrud" fill="#00CEC4" fill-rule="nonzero"></path>
    </g>
</svg>